<mxfile host="Electron" agent="Mozilla/5.0 (Windows NT 10.0; Win64; x64) AppleWebKit/537.36 (KHTML, like Gecko) draw.io/26.0.4 Chrome/128.0.6613.186 Electron/32.2.5 Safari/537.36" version="26.0.4">
  <diagram name="Page-1" id="-pmAG55PYEJWRh5QnQPN">
    <mxGraphModel dx="1050" dy="621" grid="1" gridSize="10" guides="1" tooltips="1" connect="1" arrows="1" fold="1" page="1" pageScale="1" pageWidth="850" pageHeight="1100" math="0" shadow="0">
      <root>
        <mxCell id="0" />
        <mxCell id="1" parent="0" />
        <mxCell id="vUmxkYCK4KYUpSk-L96z-42" value="" style="group" parent="1" vertex="1" connectable="0">
          <mxGeometry x="39.99999999999994" y="70" width="770" height="960" as="geometry" />
        </mxCell>
        <mxCell id="vUmxkYCK4KYUpSk-L96z-1" value="" style="rounded=0;whiteSpace=wrap;html=1;rotation=90;" parent="vUmxkYCK4KYUpSk-L96z-42" vertex="1">
          <mxGeometry x="-94.99999999999994" y="95" width="960" height="770" as="geometry" />
        </mxCell>
        <mxCell id="vUmxkYCK4KYUpSk-L96z-2" value="" style="rounded=0;whiteSpace=wrap;html=1;" parent="vUmxkYCK4KYUpSk-L96z-42" vertex="1">
          <mxGeometry x="173.00000000000006" y="100" width="415" height="760" as="geometry" />
        </mxCell>
        <mxCell id="vUmxkYCK4KYUpSk-L96z-3" value="Admin" style="shape=umlActor;verticalLabelPosition=bottom;verticalAlign=top;html=1;outlineConnect=0;" parent="vUmxkYCK4KYUpSk-L96z-42" vertex="1">
          <mxGeometry x="115.00000000000006" y="450" width="30" height="60" as="geometry" />
        </mxCell>
        <mxCell id="vUmxkYCK4KYUpSk-L96z-4" value="" style="endArrow=none;html=1;rounded=0;entryX=0.249;entryY=0.937;entryDx=0;entryDy=0;entryPerimeter=0;" parent="vUmxkYCK4KYUpSk-L96z-42" target="vUmxkYCK4KYUpSk-L96z-5" edge="1">
          <mxGeometry width="50" height="50" relative="1" as="geometry">
            <mxPoint x="155.00000000000006" y="480" as="sourcePoint" />
            <mxPoint x="45.00000000000006" y="250" as="targetPoint" />
          </mxGeometry>
        </mxCell>
        <mxCell id="vUmxkYCK4KYUpSk-L96z-7" value="" style="endArrow=none;html=1;rounded=0;entryX=0.299;entryY=0.931;entryDx=0;entryDy=0;entryPerimeter=0;" parent="vUmxkYCK4KYUpSk-L96z-42" target="vUmxkYCK4KYUpSk-L96z-11" edge="1">
          <mxGeometry width="50" height="50" relative="1" as="geometry">
            <mxPoint x="155.00000000000006" y="480.36" as="sourcePoint" />
            <mxPoint x="303.7692025991587" y="340" as="targetPoint" />
          </mxGeometry>
        </mxCell>
        <mxCell id="vUmxkYCK4KYUpSk-L96z-8" value="" style="group" parent="vUmxkYCK4KYUpSk-L96z-42" vertex="1" connectable="0">
          <mxGeometry x="270.00000000000006" y="170" width="110" height="70" as="geometry" />
        </mxCell>
        <mxCell id="vUmxkYCK4KYUpSk-L96z-9" value="" style="group" parent="vUmxkYCK4KYUpSk-L96z-8" vertex="1" connectable="0">
          <mxGeometry width="110" height="70" as="geometry" />
        </mxCell>
        <mxCell id="vUmxkYCK4KYUpSk-L96z-5" value="" style="ellipse;whiteSpace=wrap;html=1;" parent="vUmxkYCK4KYUpSk-L96z-9" vertex="1">
          <mxGeometry width="110" height="70" as="geometry" />
        </mxCell>
        <mxCell id="vUmxkYCK4KYUpSk-L96z-6" value="Sign In&amp;nbsp;&lt;span style=&quot;background-color: initial;&quot;&gt;Admin&lt;/span&gt;" style="text;html=1;align=center;verticalAlign=middle;whiteSpace=wrap;rounded=0;" parent="vUmxkYCK4KYUpSk-L96z-9" vertex="1">
          <mxGeometry x="15" y="20" width="80" height="30" as="geometry" />
        </mxCell>
        <mxCell id="vUmxkYCK4KYUpSk-L96z-10" value="" style="group" parent="vUmxkYCK4KYUpSk-L96z-42" vertex="1" connectable="0">
          <mxGeometry x="270.00000000000006" y="310" width="110" height="70" as="geometry" />
        </mxCell>
        <mxCell id="vUmxkYCK4KYUpSk-L96z-11" value="" style="ellipse;whiteSpace=wrap;html=1;" parent="vUmxkYCK4KYUpSk-L96z-10" vertex="1">
          <mxGeometry width="110" height="70" as="geometry" />
        </mxCell>
        <mxCell id="vUmxkYCK4KYUpSk-L96z-12" value="Manage Doctors" style="text;html=1;align=center;verticalAlign=middle;whiteSpace=wrap;rounded=0;" parent="vUmxkYCK4KYUpSk-L96z-10" vertex="1">
          <mxGeometry x="15" y="20" width="80" height="30" as="geometry" />
        </mxCell>
        <mxCell id="vUmxkYCK4KYUpSk-L96z-13" value="" style="endArrow=none;html=1;rounded=0;entryX=0;entryY=0.5;entryDx=0;entryDy=0;" parent="vUmxkYCK4KYUpSk-L96z-42" target="vUmxkYCK4KYUpSk-L96z-15" edge="1">
          <mxGeometry width="50" height="50" relative="1" as="geometry">
            <mxPoint x="155.00000000000006" y="480" as="sourcePoint" />
            <mxPoint x="275.00000000000006" y="480" as="targetPoint" />
          </mxGeometry>
        </mxCell>
        <mxCell id="vUmxkYCK4KYUpSk-L96z-14" value="" style="group" parent="vUmxkYCK4KYUpSk-L96z-42" vertex="1" connectable="0">
          <mxGeometry x="270.00000000000006" y="445" width="110" height="70" as="geometry" />
        </mxCell>
        <mxCell id="vUmxkYCK4KYUpSk-L96z-15" value="" style="ellipse;whiteSpace=wrap;html=1;" parent="vUmxkYCK4KYUpSk-L96z-14" vertex="1">
          <mxGeometry width="110" height="70" as="geometry" />
        </mxCell>
        <mxCell id="vUmxkYCK4KYUpSk-L96z-16" value="Manage Patients" style="text;html=1;align=center;verticalAlign=middle;whiteSpace=wrap;rounded=0;" parent="vUmxkYCK4KYUpSk-L96z-14" vertex="1">
          <mxGeometry x="15" y="20" width="80" height="30" as="geometry" />
        </mxCell>
        <mxCell id="vUmxkYCK4KYUpSk-L96z-17" value="" style="endArrow=none;html=1;rounded=0;entryX=0.276;entryY=0.054;entryDx=0;entryDy=0;entryPerimeter=0;" parent="vUmxkYCK4KYUpSk-L96z-42" target="vUmxkYCK4KYUpSk-L96z-19" edge="1">
          <mxGeometry width="50" height="50" relative="1" as="geometry">
            <mxPoint x="155.00000000000006" y="480" as="sourcePoint" />
            <mxPoint x="285.00000000000006" y="520" as="targetPoint" />
          </mxGeometry>
        </mxCell>
        <mxCell id="vUmxkYCK4KYUpSk-L96z-18" value="" style="group" parent="vUmxkYCK4KYUpSk-L96z-42" vertex="1" connectable="0">
          <mxGeometry x="270.00000000000006" y="580" width="110" height="70" as="geometry" />
        </mxCell>
        <mxCell id="vUmxkYCK4KYUpSk-L96z-19" value="" style="ellipse;whiteSpace=wrap;html=1;" parent="vUmxkYCK4KYUpSk-L96z-18" vertex="1">
          <mxGeometry width="110" height="70" as="geometry" />
        </mxCell>
        <mxCell id="vUmxkYCK4KYUpSk-L96z-20" value="Manage Polies" style="text;html=1;align=center;verticalAlign=middle;whiteSpace=wrap;rounded=0;" parent="vUmxkYCK4KYUpSk-L96z-18" vertex="1">
          <mxGeometry x="15" y="20" width="80" height="30" as="geometry" />
        </mxCell>
        <mxCell id="vUmxkYCK4KYUpSk-L96z-21" value="" style="endArrow=none;html=1;rounded=0;entryX=0.252;entryY=0.061;entryDx=0;entryDy=0;entryPerimeter=0;" parent="vUmxkYCK4KYUpSk-L96z-42" target="vUmxkYCK4KYUpSk-L96z-23" edge="1">
          <mxGeometry width="50" height="50" relative="1" as="geometry">
            <mxPoint x="155.00000000000006" y="480" as="sourcePoint" />
            <mxPoint x="281.00000000000006" y="240" as="targetPoint" />
          </mxGeometry>
        </mxCell>
        <mxCell id="vUmxkYCK4KYUpSk-L96z-22" value="" style="group" parent="vUmxkYCK4KYUpSk-L96z-42" vertex="1" connectable="0">
          <mxGeometry x="270.00000000000006" y="720" width="110" height="70" as="geometry" />
        </mxCell>
        <mxCell id="vUmxkYCK4KYUpSk-L96z-23" value="" style="ellipse;whiteSpace=wrap;html=1;" parent="vUmxkYCK4KYUpSk-L96z-22" vertex="1">
          <mxGeometry width="110" height="70" as="geometry" />
        </mxCell>
        <mxCell id="vUmxkYCK4KYUpSk-L96z-24" value="Manage Medicines" style="text;html=1;align=center;verticalAlign=middle;whiteSpace=wrap;rounded=0;" parent="vUmxkYCK4KYUpSk-L96z-22" vertex="1">
          <mxGeometry x="15" y="20" width="80" height="30" as="geometry" />
        </mxCell>
        <mxCell id="vUmxkYCK4KYUpSk-L96z-25" value="Unregistered&amp;nbsp;&lt;div&gt;Patient&lt;/div&gt;" style="shape=umlActor;verticalLabelPosition=bottom;verticalAlign=top;html=1;outlineConnect=0;" parent="vUmxkYCK4KYUpSk-L96z-42" vertex="1">
          <mxGeometry x="615" y="210" width="30" height="60" as="geometry" />
        </mxCell>
        <mxCell id="vUmxkYCK4KYUpSk-L96z-26" value="Registered&amp;nbsp;&lt;div&gt;Patient&lt;/div&gt;" style="shape=umlActor;verticalLabelPosition=bottom;verticalAlign=top;html=1;outlineConnect=0;" parent="vUmxkYCK4KYUpSk-L96z-42" vertex="1">
          <mxGeometry x="675" y="300" width="30" height="60" as="geometry" />
        </mxCell>
        <mxCell id="vUmxkYCK4KYUpSk-L96z-29" value="Patient" style="shape=umlActor;verticalLabelPosition=bottom;verticalAlign=top;html=1;outlineConnect=0;" parent="vUmxkYCK4KYUpSk-L96z-42" vertex="1">
          <mxGeometry x="675" y="100" width="30" height="60" as="geometry" />
        </mxCell>
        <mxCell id="vUmxkYCK4KYUpSk-L96z-30" value="" style="endArrow=none;html=1;rounded=0;exitX=0.954;exitY=0.712;exitDx=0;exitDy=0;exitPerimeter=0;" parent="vUmxkYCK4KYUpSk-L96z-42" source="vUmxkYCK4KYUpSk-L96z-32" edge="1">
          <mxGeometry width="50" height="50" relative="1" as="geometry">
            <mxPoint x="525" y="170" as="sourcePoint" />
            <mxPoint x="615" y="240.00096881037814" as="targetPoint" />
          </mxGeometry>
        </mxCell>
        <mxCell id="vUmxkYCK4KYUpSk-L96z-31" value="" style="group" parent="vUmxkYCK4KYUpSk-L96z-42" vertex="1" connectable="0">
          <mxGeometry x="425.00000000000006" y="150" width="110" height="70" as="geometry" />
        </mxCell>
        <mxCell id="vUmxkYCK4KYUpSk-L96z-32" value="" style="ellipse;whiteSpace=wrap;html=1;" parent="vUmxkYCK4KYUpSk-L96z-31" vertex="1">
          <mxGeometry width="110" height="70" as="geometry" />
        </mxCell>
        <mxCell id="vUmxkYCK4KYUpSk-L96z-33" value="Register Patient" style="text;html=1;align=center;verticalAlign=middle;whiteSpace=wrap;rounded=0;" parent="vUmxkYCK4KYUpSk-L96z-31" vertex="1">
          <mxGeometry x="15" y="20" width="80" height="30" as="geometry" />
        </mxCell>
        <mxCell id="vUmxkYCK4KYUpSk-L96z-34" value="" style="endArrow=none;html=1;rounded=0;exitX=1;exitY=0.5;exitDx=0;exitDy=0;" parent="vUmxkYCK4KYUpSk-L96z-42" source="vUmxkYCK4KYUpSk-L96z-37" edge="1">
          <mxGeometry width="50" height="50" relative="1" as="geometry">
            <mxPoint x="505.00000000000006" y="190" as="sourcePoint" />
            <mxPoint x="680" y="330" as="targetPoint" />
          </mxGeometry>
        </mxCell>
        <mxCell id="vUmxkYCK4KYUpSk-L96z-35" value="" style="group" parent="vUmxkYCK4KYUpSk-L96z-42" vertex="1" connectable="0">
          <mxGeometry x="385.00000000000006" y="230" width="110" height="70" as="geometry" />
        </mxCell>
        <mxCell id="vUmxkYCK4KYUpSk-L96z-36" value="" style="group" parent="vUmxkYCK4KYUpSk-L96z-35" vertex="1" connectable="0">
          <mxGeometry width="110" height="70" as="geometry" />
        </mxCell>
        <mxCell id="vUmxkYCK4KYUpSk-L96z-37" value="" style="ellipse;whiteSpace=wrap;html=1;" parent="vUmxkYCK4KYUpSk-L96z-36" vertex="1">
          <mxGeometry width="110" height="70" as="geometry" />
        </mxCell>
        <mxCell id="vUmxkYCK4KYUpSk-L96z-38" value="Sign In Patient" style="text;html=1;align=center;verticalAlign=middle;whiteSpace=wrap;rounded=0;" parent="vUmxkYCK4KYUpSk-L96z-36" vertex="1">
          <mxGeometry x="15" y="20" width="80" height="30" as="geometry" />
        </mxCell>
        <mxCell id="vUmxkYCK4KYUpSk-L96z-39" value="" style="endArrow=none;html=1;rounded=0;" parent="vUmxkYCK4KYUpSk-L96z-42" edge="1">
          <mxGeometry width="50" height="50" relative="1" as="geometry">
            <mxPoint x="645" y="240" as="sourcePoint" />
            <mxPoint x="690" y="240" as="targetPoint" />
          </mxGeometry>
        </mxCell>
        <mxCell id="vUmxkYCK4KYUpSk-L96z-40" value="" style="endArrow=classic;html=1;rounded=0;entryX=0.198;entryY=0.104;entryDx=0;entryDy=0;entryPerimeter=0;" parent="vUmxkYCK4KYUpSk-L96z-42" target="vUmxkYCK4KYUpSk-L96z-1" edge="1">
          <mxGeometry width="50" height="50" relative="1" as="geometry">
            <mxPoint x="690" y="290" as="sourcePoint" />
            <mxPoint x="730" y="270" as="targetPoint" />
          </mxGeometry>
        </mxCell>
        <mxCell id="vUmxkYCK4KYUpSk-L96z-41" value="Doctor" style="shape=umlActor;verticalLabelPosition=bottom;verticalAlign=top;html=1;outlineConnect=0;" parent="vUmxkYCK4KYUpSk-L96z-42" vertex="1">
          <mxGeometry x="675" y="490" width="30" height="60" as="geometry" />
        </mxCell>
        <mxCell id="nRiT8ak66ytunEKEcYjI-6" value="" style="group" parent="vUmxkYCK4KYUpSk-L96z-42" vertex="1" connectable="0">
          <mxGeometry x="470.00000000000006" y="450" width="110" height="70" as="geometry" />
        </mxCell>
        <mxCell id="nRiT8ak66ytunEKEcYjI-3" value="" style="ellipse;whiteSpace=wrap;html=1;" parent="nRiT8ak66ytunEKEcYjI-6" vertex="1">
          <mxGeometry width="110" height="70" as="geometry" />
        </mxCell>
        <mxCell id="nRiT8ak66ytunEKEcYjI-4" value="Update Doctor Data" style="text;html=1;align=center;verticalAlign=middle;whiteSpace=wrap;rounded=0;" parent="nRiT8ak66ytunEKEcYjI-6" vertex="1">
          <mxGeometry x="15" y="20" width="80" height="30" as="geometry" />
        </mxCell>
        <mxCell id="nRiT8ak66ytunEKEcYjI-8" value="" style="endArrow=none;html=1;rounded=0;exitX=1;exitY=0.5;exitDx=0;exitDy=0;" parent="vUmxkYCK4KYUpSk-L96z-42" source="nRiT8ak66ytunEKEcYjI-3" edge="1">
          <mxGeometry width="50" height="50" relative="1" as="geometry">
            <mxPoint x="360.00000000000006" y="650" as="sourcePoint" />
            <mxPoint x="680" y="520" as="targetPoint" />
          </mxGeometry>
        </mxCell>
        <mxCell id="nRiT8ak66ytunEKEcYjI-10" value="" style="group" parent="vUmxkYCK4KYUpSk-L96z-42" vertex="1" connectable="0">
          <mxGeometry x="470.00000000000006" y="530" width="110" height="70" as="geometry" />
        </mxCell>
        <mxCell id="nRiT8ak66ytunEKEcYjI-11" value="" style="ellipse;whiteSpace=wrap;html=1;" parent="nRiT8ak66ytunEKEcYjI-10" vertex="1">
          <mxGeometry width="110" height="70" as="geometry" />
        </mxCell>
        <mxCell id="nRiT8ak66ytunEKEcYjI-12" value="Check Schedule Input" style="text;html=1;align=center;verticalAlign=middle;whiteSpace=wrap;rounded=0;" parent="nRiT8ak66ytunEKEcYjI-10" vertex="1">
          <mxGeometry x="15" y="20" width="80" height="30" as="geometry" />
        </mxCell>
        <mxCell id="nRiT8ak66ytunEKEcYjI-14" value="" style="endArrow=none;html=1;rounded=0;exitX=0.895;exitY=0.192;exitDx=0;exitDy=0;exitPerimeter=0;" parent="vUmxkYCK4KYUpSk-L96z-42" source="nRiT8ak66ytunEKEcYjI-11" edge="1">
          <mxGeometry width="50" height="50" relative="1" as="geometry">
            <mxPoint x="605" y="590" as="sourcePoint" />
            <mxPoint x="680" y="520" as="targetPoint" />
          </mxGeometry>
        </mxCell>
        <mxCell id="nRiT8ak66ytunEKEcYjI-16" value="" style="group" parent="vUmxkYCK4KYUpSk-L96z-42" vertex="1" connectable="0">
          <mxGeometry x="460.00000000000006" y="610" width="110" height="70" as="geometry" />
        </mxCell>
        <mxCell id="nRiT8ak66ytunEKEcYjI-17" value="" style="ellipse;whiteSpace=wrap;html=1;" parent="nRiT8ak66ytunEKEcYjI-16" vertex="1">
          <mxGeometry width="110" height="70" as="geometry" />
        </mxCell>
        <mxCell id="nRiT8ak66ytunEKEcYjI-18" value="Check Patient" style="text;html=1;align=center;verticalAlign=middle;whiteSpace=wrap;rounded=0;" parent="nRiT8ak66ytunEKEcYjI-16" vertex="1">
          <mxGeometry x="15" y="20" width="80" height="30" as="geometry" />
        </mxCell>
        <mxCell id="nRiT8ak66ytunEKEcYjI-20" value="" style="group" parent="vUmxkYCK4KYUpSk-L96z-42" vertex="1" connectable="0">
          <mxGeometry x="450.00000000000006" y="690" width="110" height="70" as="geometry" />
        </mxCell>
        <mxCell id="nRiT8ak66ytunEKEcYjI-21" value="" style="ellipse;whiteSpace=wrap;html=1;" parent="nRiT8ak66ytunEKEcYjI-20" vertex="1">
          <mxGeometry width="110" height="70" as="geometry" />
        </mxCell>
        <mxCell id="nRiT8ak66ytunEKEcYjI-22" value="Provide Medicine Notes" style="text;html=1;align=center;verticalAlign=middle;whiteSpace=wrap;rounded=0;" parent="nRiT8ak66ytunEKEcYjI-20" vertex="1">
          <mxGeometry x="15" y="20" width="80" height="30" as="geometry" />
        </mxCell>
        <mxCell id="nRiT8ak66ytunEKEcYjI-23" value="" style="group" parent="vUmxkYCK4KYUpSk-L96z-42" vertex="1" connectable="0">
          <mxGeometry x="430.00000000000006" y="770" width="110" height="70" as="geometry" />
        </mxCell>
        <mxCell id="nRiT8ak66ytunEKEcYjI-24" value="" style="ellipse;whiteSpace=wrap;html=1;" parent="nRiT8ak66ytunEKEcYjI-23" vertex="1">
          <mxGeometry width="110" height="70" as="geometry" />
        </mxCell>
        <mxCell id="nRiT8ak66ytunEKEcYjI-25" value="Display Patients History" style="text;html=1;align=center;verticalAlign=middle;whiteSpace=wrap;rounded=0;" parent="nRiT8ak66ytunEKEcYjI-23" vertex="1">
          <mxGeometry x="15" y="20" width="80" height="30" as="geometry" />
        </mxCell>
        <mxCell id="nRiT8ak66ytunEKEcYjI-28" value="" style="group" parent="vUmxkYCK4KYUpSk-L96z-42" vertex="1" connectable="0">
          <mxGeometry x="340.00000000000006" y="510" width="110" height="70" as="geometry" />
        </mxCell>
        <mxCell id="nRiT8ak66ytunEKEcYjI-29" value="" style="ellipse;whiteSpace=wrap;html=1;" parent="nRiT8ak66ytunEKEcYjI-28" vertex="1">
          <mxGeometry width="110" height="70" as="geometry" />
        </mxCell>
        <mxCell id="nRiT8ak66ytunEKEcYjI-30" value="Calculate Check Fee" style="text;html=1;align=center;verticalAlign=middle;whiteSpace=wrap;rounded=0;" parent="nRiT8ak66ytunEKEcYjI-28" vertex="1">
          <mxGeometry x="15" y="20" width="80" height="30" as="geometry" />
        </mxCell>
        <mxCell id="nRiT8ak66ytunEKEcYjI-32" value="includes" style="html=1;verticalAlign=bottom;endArrow=open;dashed=1;endSize=8;curved=0;rounded=0;exitX=0.5;exitY=1;exitDx=0;exitDy=0;entryX=0;entryY=0.5;entryDx=0;entryDy=0;" parent="vUmxkYCK4KYUpSk-L96z-42" source="nRiT8ak66ytunEKEcYjI-29" target="nRiT8ak66ytunEKEcYjI-17" edge="1">
          <mxGeometry relative="1" as="geometry">
            <mxPoint x="490.00000000000006" y="580" as="sourcePoint" />
            <mxPoint x="410.00000000000006" y="580" as="targetPoint" />
          </mxGeometry>
        </mxCell>
        <mxCell id="19aTQ30yX1luQGva-pau-1" value="" style="endArrow=none;html=1;rounded=0;exitX=1;exitY=0.5;exitDx=0;exitDy=0;" parent="vUmxkYCK4KYUpSk-L96z-42" source="19aTQ30yX1luQGva-pau-4" edge="1">
          <mxGeometry width="50" height="50" relative="1" as="geometry">
            <mxPoint x="545" y="260" as="sourcePoint" />
            <mxPoint x="680" y="330" as="targetPoint" />
          </mxGeometry>
        </mxCell>
        <mxCell id="19aTQ30yX1luQGva-pau-2" value="" style="group" parent="vUmxkYCK4KYUpSk-L96z-42" vertex="1" connectable="0">
          <mxGeometry x="425.00000000000006" y="300" width="110" height="70" as="geometry" />
        </mxCell>
        <mxCell id="19aTQ30yX1luQGva-pau-3" value="" style="group" parent="19aTQ30yX1luQGva-pau-2" vertex="1" connectable="0">
          <mxGeometry width="110" height="70" as="geometry" />
        </mxCell>
        <mxCell id="19aTQ30yX1luQGva-pau-4" value="" style="ellipse;whiteSpace=wrap;html=1;" parent="19aTQ30yX1luQGva-pau-3" vertex="1">
          <mxGeometry width="110" height="70" as="geometry" />
        </mxCell>
        <mxCell id="19aTQ30yX1luQGva-pau-5" value="Register To Poly" style="text;html=1;align=center;verticalAlign=middle;whiteSpace=wrap;rounded=0;" parent="19aTQ30yX1luQGva-pau-3" vertex="1">
          <mxGeometry x="15" y="20" width="80" height="30" as="geometry" />
        </mxCell>
        <mxCell id="nRiT8ak66ytunEKEcYjI-1" value="" style="group" parent="1" vertex="1" connectable="0">
          <mxGeometry x="470" y="450" width="110" height="70" as="geometry" />
        </mxCell>
        <mxCell id="vUmxkYCK4KYUpSk-L96z-46" value="" style="ellipse;whiteSpace=wrap;html=1;" parent="nRiT8ak66ytunEKEcYjI-1" vertex="1">
          <mxGeometry width="110" height="70" as="geometry" />
        </mxCell>
        <mxCell id="vUmxkYCK4KYUpSk-L96z-47" value="Sign In&amp;nbsp;&lt;span style=&quot;background-color: initial;&quot;&gt;Doctor&lt;/span&gt;" style="text;html=1;align=center;verticalAlign=middle;whiteSpace=wrap;rounded=0;" parent="nRiT8ak66ytunEKEcYjI-1" vertex="1">
          <mxGeometry x="15" y="20" width="80" height="30" as="geometry" />
        </mxCell>
        <mxCell id="vUmxkYCK4KYUpSk-L96z-43" value="" style="endArrow=none;html=1;rounded=0;exitX=0.968;exitY=0.705;exitDx=0;exitDy=0;exitPerimeter=0;" parent="1" source="vUmxkYCK4KYUpSk-L96z-46" edge="1">
          <mxGeometry width="50" height="50" relative="1" as="geometry">
            <mxPoint x="560" y="550" as="sourcePoint" />
            <mxPoint x="720" y="590" as="targetPoint" />
          </mxGeometry>
        </mxCell>
        <mxCell id="nRiT8ak66ytunEKEcYjI-19" value="" style="endArrow=none;html=1;rounded=0;exitX=1;exitY=0;exitDx=0;exitDy=0;" parent="1" source="nRiT8ak66ytunEKEcYjI-17" edge="1">
          <mxGeometry width="50" height="50" relative="1" as="geometry">
            <mxPoint x="608" y="653" as="sourcePoint" />
            <mxPoint x="720" y="590" as="targetPoint" />
          </mxGeometry>
        </mxCell>
        <mxCell id="nRiT8ak66ytunEKEcYjI-26" value="" style="endArrow=none;html=1;rounded=0;exitX=0.942;exitY=0.269;exitDx=0;exitDy=0;exitPerimeter=0;" parent="1" source="nRiT8ak66ytunEKEcYjI-21" edge="1">
          <mxGeometry width="50" height="50" relative="1" as="geometry">
            <mxPoint x="604" y="700" as="sourcePoint" />
            <mxPoint x="720" y="590" as="targetPoint" />
          </mxGeometry>
        </mxCell>
        <mxCell id="nRiT8ak66ytunEKEcYjI-27" value="" style="endArrow=none;html=1;rounded=0;exitX=1;exitY=0.5;exitDx=0;exitDy=0;" parent="1" source="nRiT8ak66ytunEKEcYjI-24" edge="1">
          <mxGeometry width="50" height="50" relative="1" as="geometry">
            <mxPoint x="604" y="789" as="sourcePoint" />
            <mxPoint x="720" y="590" as="targetPoint" />
          </mxGeometry>
        </mxCell>
      </root>
    </mxGraphModel>
  </diagram>
</mxfile>
